<?xml version="1.0" encoding="utf-8"?><!-- Uploaded to: SVG Repo, www.svgrepo.com, Generator: SVG Repo Mixer Tools -->
<svg version="1.1" id="Uploaded to svgrepo.com" xmlns="http://www.w3.org/2000/svg" xmlns:xlink="http://www.w3.org/1999/xlink" 
	 width="800px" height="800px" viewBox="0 0 32 32" xml:space="preserve">
<style type="text/css">
	.feather_een{fill:#111918;}
</style>
<path class="feather_een" d="M9,2C7.346,2,6,3.346,6,5s1.346,3,3,3l1.001,0l0-6L9,2z M9,7C7.895,7,7,6.105,7,5c0-1.105,0.895-2,2-2
	V7z M11,24v3c0,0.552,0.448,1,1,1h8c0.552,0,1-0.448,1-1v-3c0-0.552-0.448-1-1-1h-8C11.448,23,11,23.448,11,24z M20,27h-8v-3h8V27z
	 M17,17c3.311,0,5.996-2.682,6-5.993L23.001,10c2.924,0,5.261-2.509,4.976-5.491C27.729,1.909,25.397,0,22.786,0H9.215
	C6.604,0,4.271,1.909,4.023,4.509C3.739,7.491,6.076,10,9,10l0.001,1.006c0.004,3.311,2.689,5.993,6,5.993h0.5v0H15.5v1.999H14
	c-0.552,0-1,0.448-1,1V21h-1c-1.657,0-3,1.343-3,3v5H8c-0.552,0-1,0.448-1,1v1c0,0.552,0.448,1,1,1h16c0.552,0,1-0.448,1-1v-1
	c0-0.552-0.448-1-1-1h-1v-5c0-1.657-1.343-3-3-3h-1v-1.001c0-0.552-0.448-1-1-1h-1.5v-2H17z M24,30v1H8v-1H24z M20,22
	c1.105,0,2,0.895,2,2v5H10v-5c0-1.105,0.895-2,2-2H20z M18,19.999v1H14v-1H18z M15.001,16c-2.757,0-5-2.243-5-5V9L8.949,9
	C6.766,8.972,5,7.189,5,5c0-2.206,1.794-4,4-4h14.001c2.206,0,4,1.794,4,4c0,2.189-1.766,3.972-3.949,4L22,9v2c0,2.757-2.243,5-5,5
	H15.001z M26.001,5c0-1.654-1.346-3-3-3L22,2l0,6l1.001,0C24.655,8,26.001,6.654,26.001,5z M23.001,3c1.105,0,2,0.895,2,2
	c0,1.105-0.895,2-2,2V3z"/>
</svg>